<svg xmlns="http://www.w3.org/2000/svg" viewBox="0 0 319.3 136.81"><defs><style>.cls-1,.cls-2{fill:#fff;}.cls-2{font-size:15px;font-family:Klavika-MediumItalic, Klavika;font-weight:500;font-style:italic;}.cls-3{letter-spacing:-0.01em;}.cls-4{letter-spacing:0em;}</style></defs><g id="Capa_2" data-name="Capa 2"><g id="Capa_1-2" data-name="Capa 1"><path class="cls-1" d="M68.62,75.9,81.78,22.43h13l-17.1,69H60L47.37,35.9,34.73,91.45H17.11L0,22.43H13L26.13,75.9,38.67,22.43H56.08Z"/><path class="cls-1" d="M145.41,91.45l-15.86-22.8H117.11v22.8H104.05v-69h28.3c16.06,0,22,6.52,22,18.65v9c0,8.29-3.11,14.09-10.36,16.68l17.1,24.67ZM131.83,33.93H117.11V57.35h14.72c7.15,0,9.43-2.59,9.43-8.39V42.12C141.26,36.31,138.77,33.93,131.83,33.93Z"/><path class="cls-1" d="M207.79,91.45H197.43L196.5,88a27.64,27.64,0,0,1-15,4.45c-9.23,0-13.16-6.32-13.16-15,0-10.26,4.45-14.2,14.71-14.2h12.13V58c0-5.59-1.56-7.56-9.64-7.56a70.78,70.78,0,0,0-14,1.55L170,42.32a65.84,65.84,0,0,1,17.3-2.38c15.86,0,20.52,5.6,20.52,18.24ZM195.15,72.38h-9.33c-4.14,0-5.28,1.14-5.28,5,0,3.53,1.14,5.08,5.07,5.08a19.88,19.88,0,0,0,9.54-2.59Z"/><path class="cls-1" d="M264.06,74.66c0,11.19-5,17.82-16.68,17.82A69.68,69.68,0,0,1,233.9,91v44l-12.64,1.77V41h10.05l1.25,4.24a26.57,26.57,0,0,1,16-5.28c10.15,0,15.54,6,15.54,17.51Zm-30.16,5.7a56.55,56.55,0,0,0,11.2,1.34c4.56,0,6.32-2.17,6.32-6.73V57.14c0-4.14-1.55-6.42-6.22-6.42a17.9,17.9,0,0,0-11.3,4.56Z"/><path class="cls-1" d="M319.3,74.66c0,11.19-5,17.82-16.69,17.82A69.58,69.58,0,0,1,289.14,91v44l-12.65,1.77V41h10.06l1.24,4.24a26.59,26.59,0,0,1,16-5.28c10.16,0,15.55,6,15.55,17.51Zm-30.16,5.7a56.45,56.45,0,0,0,11.19,1.34c4.56,0,6.32-2.17,6.32-6.73V57.14c0-4.14-1.55-6.42-6.22-6.42a17.85,17.85,0,0,0-11.29,4.56Z"/><text class="cls-2" transform="translate(0 12.5)"><tspan class="cls-3">C</tspan><tspan x="7.56" y="0">OMPUTER </tspan><tspan class="cls-4" x="76" y="0">F</tspan><tspan x="83.75" y="0">ORMS </tspan></text></g></g></svg>